<?xml version="1.0" encoding="utf-8"?>
<!-- Generator: Adobe Illustrator 24.1.2, SVG Export Plug-In . SVG Version: 6.00 Build 0)  -->
<svg version="1.1" id="Layer_1" xmlns="http://www.w3.org/2000/svg" xmlns:xlink="http://www.w3.org/1999/xlink" x="0px" y="0px"
	 width="90px" height="60px" viewBox="0 0 90 60" style="enable-background:new 0 0 90 60;" xml:space="preserve">
<style type="text/css">
	.st0{fill:#603AFC;}
	.st1{clip-path:url(#SVGID_2_);fill:url(#SVGID_3_);}
</style>
<path class="st0" d="M18.2,21.4c2.1,0,3.8,1,3.8,2.3S20.3,26,18.2,26s-3.8-1-3.8-2.3S16.1,21.4,18.2,21.4z M44.2,26
	c2.1,0,3.8,1,3.8,2.3s-1.7,2.3-3.8,2.3s-3.8-1-3.8-2.3S42.1,26,44.2,26z M70.3,21.4c2.1,0,3.8,1,3.8,2.3S72.4,26,70.3,26
	c-2.1,0-3.8-1-3.8-2.3S68.2,21.4,70.3,21.4z M85.6,45.4l-3-10.1c4.6-2.1,7.4-4.7,7.4-7.8c0,0,0,0,0-0.1c-0.1-1.5-0.7-2.9-1.7-3.9
	c-2.6-2.9-7.7-4.9-12.6-6.2c-0.7-0.2-1.4-0.4-2.1-0.5c-0.7-0.2-1.5-0.3-2.2-0.5c-1-0.2-1.8-0.6-2.6-1.2c-0.2-0.2-0.4-0.4-0.6-0.6
	c-0.1-0.1-0.3-0.3-0.4-0.4c-0.3-0.4-0.6-0.8-0.8-1.3C63.7,5.2,54.8,0.2,45,0.2c0,0,0,0,0,0c0,0,0,0,0,0c-9.8,0-18.7,5.1-22.1,12.6
	c-0.8,1.8-2.5,3.1-4.4,3.5c-0.3,0.1-0.6,0.1-0.9,0.2c-0.1,0-0.2,0-0.2,0.1c-1.5,0.3-2.9,0.7-4.4,1.1c-0.1,0-0.3,0.1-0.4,0.1
	c-0.3,0.1-0.6,0.2-0.8,0.3c-4.1,1.3-7.9,3.1-10,5.4c-1.1,1.1-1.7,2.5-1.8,4c0,3.1,2.8,5.7,7.4,7.8l-3,10.1c-2.1,1.1-3.6,3.3-3.6,5.9
	c0,3.7,3,6.7,6.7,6.7s6.7-3,6.7-6.7c0-1.7-0.7-3.2-1.7-4.4l4.7-8.5c6.8,1.5,14.9,2.5,23.1,2.7l0.8,6.3c-1.7,1.2-2.8,3.2-2.8,5.5
	c0,3.7,3,6.7,6.7,6.7c3.7,0,6.7-3,6.7-6.7c0-2.3-1.1-4.3-2.8-5.5l0.8-6.3c8.2-0.3,16.3-1.2,23.1-2.7l4.7,8.5c-1,1.2-1.7,2.7-1.7,4.4
	c0,3.7,3,6.7,6.7,6.7c3.7,0,6.7-3,6.7-6.7C89.2,48.7,87.8,46.5,85.6,45.4z M83.8,23.9c0.1,0.4,0.1,0.9-0.1,1.3
	c-0.1,0.3-0.4,0.5-0.6,0.7c-7.4,4-21.9,6.4-38,6.4c-16.1,0-30.7-2.5-38-6.4c-0.4-0.2-0.7-0.6-0.8-1C6,24.4,6.1,24,6.3,23.6
	c0.1-0.2,0.3-0.4,0.5-0.5C6.9,23,7,22.9,7.2,22.8c1.6-0.8,3.3-1.5,5-2.1c2.1-0.7,4.4-1.3,6.9-1.9c0.9-0.2,1.8-0.5,2.6-1
	c5.2,4.2,13,6.4,23.2,6.4c0,0,0,0,0,0c0.1,0,0.8,0,1.8,0c4.3,0,15.4-0.6,21.5-6.5c0.8,0.5,1.7,0.8,2.6,1c0.3,0.1,0.7,0.2,1,0.2
	c1.4,0.3,2.7,0.6,3.9,1c0.2,0.1,0.4,0.1,0.7,0.2c0.4,0.1,0.7,0.2,1,0.3c1.9,0.6,3.7,1.4,5.5,2.3c0,0,0,0,0,0
	C83.4,23.1,83.7,23.5,83.8,23.9z M66.2,16.2c-6.8,6.2-20.9,5.5-21.2,5.4c-11.3,0-17.7-2.8-21.2-5.4c0.1-0.1,0.1-0.1,0.2-0.2
	c0.2-0.2,0.4-0.5,0.6-0.7c0.1-0.1,0.2-0.2,0.2-0.3c0.2-0.4,0.4-0.7,0.6-1.1c0.2-0.4,0.4-0.8,0.6-1.2c3.3-5.9,10.8-9.8,19-9.8
	c8.8,0,16.7,4.4,19.6,11c0.2,0.4,0.4,0.8,0.7,1.2c0,0,0,0,0,0C65.6,15.5,65.8,15.8,66.2,16.2C66.1,16.2,66.2,16.2,66.2,16.2z
	 M2.7,27.5c0-0.8,0.3-1.5,0.9-2.1c0,0,0,0.1,0,0.1c0.3,1.1,1.1,2.1,2.1,2.7C13.4,32.4,28.5,35,45,35s31.6-2.6,39.3-6.8c0,0,0,0,0,0
	c0.7-0.4,1.3-1,1.7-1.7c0.2-0.3,0.3-0.7,0.4-1.1c0.5,0.6,0.9,1.3,0.9,2.1c0,1.9-2.4,3.9-6.8,5.7c0,0-0.1,0-0.1,0
	c-2.1,0.8-4.5,1.6-7.3,2.3c0,0,0,0-0.1,0c-6.5,1.6-14.9,2.7-24.7,2.9c0,0,0,0,0,0c-2.3,0.1-4.6,0.1-6.8,0c0,0,0,0,0,0
	c-9.7-0.2-18.1-1.3-24.6-2.9c0,0-0.1,0-0.1,0c-2.8-0.7-5.2-1.4-7.3-2.3c-0.1,0-0.1,0-0.2,0C5.1,31.4,2.7,29.4,2.7,27.5z M7.5,55.3
	c-2.2,0-4-1.8-4-4c0-1.7,1.1-3.1,2.5-3.7c0,0,0,0,0,0c0.3-0.1,0.6-0.2,0.9-0.2c0.1,0,0.2,0,0.2,0c0.3,0,0.5,0,0.8,0
	c0.1,0,0.1,0,0.2,0c0.7,0.1,1.3,0.4,1.8,0.8c0,0,0,0,0,0c0.9,0.7,1.5,1.9,1.5,3.1C11.5,53.5,9.7,55.3,7.5,55.3z M10.3,45.3
	C10.3,45.3,10.3,45.3,10.3,45.3c-0.4-0.2-0.8-0.3-1.2-0.4c-0.1,0-0.1-0.1-0.2-0.1c-0.5-0.1-0.9-0.2-1.4-0.2c0,0,0,0,0,0l2.5-8.3
	c1.4,0.5,3,1,4.6,1.4L10.3,45.3z M45,56.9c-2.2,0-4-1.8-4-4c0-1.6,0.9-2.9,2.2-3.6c0,0,0,0,0,0c1.2-0.6,2.4-0.6,3.6,0c0,0,0,0,0,0
	c1.3,0.7,2.2,2,2.2,3.6C49,55.1,47.2,56.9,45,56.9z M46.3,46.3c-0.4-0.1-0.8-0.1-1.3-0.1c-0.4,0-0.9,0-1.3,0.1l-0.6-5.1
	c0.6,0,1.3,0,1.9,0c0.6,0,1.3,0,1.9,0L46.3,46.3z M80.1,36.3l2.5,8.3c0,0,0,0,0,0c-0.5,0-1,0.1-1.4,0.2c-0.1,0-0.1,0-0.2,0.1
	c-0.4,0.1-0.8,0.2-1.2,0.4c0,0,0,0,0,0l-4.2-7.6C77.1,37.3,78.7,36.8,80.1,36.3z M82.5,55.3c-2.2,0-4-1.8-4-4c0-1.3,0.6-2.4,1.5-3.1
	c0,0,0,0,0,0c0.5-0.4,1.2-0.7,1.8-0.8c0.1,0,0.1,0,0.2,0c0.2,0,0.5,0,0.8,0c0.1,0,0.2,0,0.2,0c0.3,0,0.6,0.1,0.9,0.2c0,0,0,0,0,0
	c1.5,0.6,2.5,2,2.5,3.7C86.6,53.5,84.8,55.3,82.5,55.3z"/>
<g>
	<defs>
		<path id="SVGID_1_" d="M18.2,21.4c2.1,0,3.8,1,3.8,2.3S20.3,26,18.2,26s-3.8-1-3.8-2.3S16.1,21.4,18.2,21.4z M44.2,26
			c2.1,0,3.8,1,3.8,2.3s-1.7,2.3-3.8,2.3s-3.8-1-3.8-2.3S42.1,26,44.2,26z M70.3,21.4c2.1,0,3.8,1,3.8,2.3S72.4,26,70.3,26
			c-2.1,0-3.8-1-3.8-2.3S68.2,21.4,70.3,21.4z M85.6,45.4l-3-10.1c4.6-2.1,7.4-4.7,7.4-7.8c0,0,0,0,0-0.1c-0.1-1.5-0.7-2.9-1.7-3.9
			c-2.6-2.9-7.7-4.9-12.6-6.2c-0.7-0.2-1.4-0.4-2.1-0.5c-0.7-0.2-1.5-0.3-2.2-0.5c-1-0.2-1.8-0.6-2.6-1.2c-0.2-0.2-0.4-0.4-0.6-0.6
			c-0.1-0.1-0.3-0.3-0.4-0.4c-0.3-0.4-0.6-0.8-0.8-1.3C63.7,5.2,54.8,0.2,45,0.2c0,0,0,0,0,0c0,0,0,0,0,0c-9.8,0-18.7,5.1-22.1,12.6
			c-0.8,1.8-2.5,3.1-4.4,3.5c-0.3,0.1-0.6,0.1-0.9,0.2c-0.1,0-0.2,0-0.2,0.1c-1.5,0.3-2.9,0.7-4.4,1.1c-0.1,0-0.3,0.1-0.4,0.1
			c-0.3,0.1-0.6,0.2-0.8,0.3c-4.1,1.3-7.9,3.1-10,5.4c-1.1,1.1-1.7,2.5-1.8,4c0,3.1,2.8,5.7,7.4,7.8l-3,10.1
			c-2.1,1.1-3.6,3.3-3.6,5.9c0,3.7,3,6.7,6.7,6.7s6.7-3,6.7-6.7c0-1.7-0.7-3.2-1.7-4.4l4.7-8.5c6.8,1.5,14.9,2.5,23.1,2.7l0.8,6.3
			c-1.7,1.2-2.8,3.2-2.8,5.5c0,3.7,3,6.7,6.7,6.7c3.7,0,6.7-3,6.7-6.7c0-2.3-1.1-4.3-2.8-5.5l0.8-6.3c8.2-0.3,16.3-1.2,23.1-2.7
			l4.7,8.5c-1,1.2-1.7,2.7-1.7,4.4c0,3.7,3,6.7,6.7,6.7c3.7,0,6.7-3,6.7-6.7C89.2,48.7,87.8,46.5,85.6,45.4z M83.8,23.9
			c0.1,0.4,0.1,0.9-0.1,1.3c-0.1,0.3-0.4,0.5-0.6,0.7c-7.4,4-21.9,6.4-38,6.4c-16.1,0-30.7-2.5-38-6.4c-0.4-0.2-0.7-0.6-0.8-1
			C6,24.4,6.1,24,6.3,23.6c0.1-0.2,0.3-0.4,0.5-0.5C6.9,23,7,22.9,7.2,22.8c1.6-0.8,3.3-1.5,5-2.1c2.1-0.7,4.4-1.3,6.9-1.9
			c0.9-0.2,1.8-0.5,2.6-1c5.2,4.2,13,6.4,23.2,6.4c0,0,0,0,0,0c0.1,0,0.8,0,1.8,0c4.3,0,15.4-0.6,21.5-6.5c0.8,0.5,1.7,0.8,2.6,1
			c0.3,0.1,0.7,0.2,1,0.2c1.4,0.3,2.7,0.6,3.9,1c0.2,0.1,0.4,0.1,0.7,0.2c0.4,0.1,0.7,0.2,1,0.3c1.9,0.6,3.7,1.4,5.5,2.3
			c0,0,0,0,0,0C83.4,23.1,83.7,23.5,83.8,23.9z M66.2,16.2c-6.8,6.2-20.9,5.5-21.2,5.4c-11.3,0-17.7-2.8-21.2-5.4
			c0.1-0.1,0.1-0.1,0.2-0.2c0.2-0.2,0.4-0.5,0.6-0.7c0.1-0.1,0.2-0.2,0.2-0.3c0.2-0.4,0.4-0.7,0.6-1.1c0.2-0.4,0.4-0.8,0.6-1.2
			c3.3-5.9,10.8-9.8,19-9.8c8.8,0,16.7,4.4,19.6,11c0.2,0.4,0.4,0.8,0.7,1.2c0,0,0,0,0,0C65.6,15.5,65.8,15.8,66.2,16.2
			C66.1,16.2,66.2,16.2,66.2,16.2z M2.7,27.5c0-0.8,0.3-1.5,0.9-2.1c0,0,0,0.1,0,0.1c0.3,1.1,1.1,2.1,2.1,2.7
			C13.4,32.4,28.5,35,45,35s31.6-2.6,39.3-6.8c0,0,0,0,0,0c0.7-0.4,1.3-1,1.7-1.7c0.2-0.3,0.3-0.7,0.4-1.1c0.5,0.6,0.9,1.3,0.9,2.1
			c0,1.9-2.4,3.9-6.8,5.7c0,0-0.1,0-0.1,0c-2.1,0.8-4.5,1.6-7.3,2.3c0,0,0,0-0.1,0c-6.5,1.6-14.9,2.7-24.7,2.9c0,0,0,0,0,0
			c-2.3,0.1-4.6,0.1-6.8,0c0,0,0,0,0,0c-9.7-0.2-18.1-1.3-24.6-2.9c0,0-0.1,0-0.1,0c-2.8-0.7-5.2-1.4-7.3-2.3c-0.1,0-0.1,0-0.2,0
			C5.1,31.4,2.7,29.4,2.7,27.5z M7.5,55.3c-2.2,0-4-1.8-4-4c0-1.7,1.1-3.1,2.5-3.7c0,0,0,0,0,0c0.3-0.1,0.6-0.2,0.9-0.2
			c0.1,0,0.2,0,0.2,0c0.3,0,0.5,0,0.8,0c0.1,0,0.1,0,0.2,0c0.7,0.1,1.3,0.4,1.8,0.8c0,0,0,0,0,0c0.9,0.7,1.5,1.9,1.5,3.1
			C11.5,53.5,9.7,55.3,7.5,55.3z M10.3,45.3C10.3,45.3,10.3,45.3,10.3,45.3c-0.4-0.2-0.8-0.3-1.2-0.4c-0.1,0-0.1-0.1-0.2-0.1
			c-0.5-0.1-0.9-0.2-1.4-0.2c0,0,0,0,0,0l2.5-8.3c1.4,0.5,3,1,4.6,1.4L10.3,45.3z M45,56.9c-2.2,0-4-1.8-4-4c0-1.6,0.9-2.9,2.2-3.6
			c0,0,0,0,0,0c1.2-0.6,2.4-0.6,3.6,0c0,0,0,0,0,0c1.3,0.7,2.2,2,2.2,3.6C49,55.1,47.2,56.9,45,56.9z M46.3,46.3
			c-0.4-0.1-0.8-0.1-1.3-0.1c-0.4,0-0.9,0-1.3,0.1l-0.6-5.1c0.6,0,1.3,0,1.9,0c0.6,0,1.3,0,1.9,0L46.3,46.3z M80.1,36.3l2.5,8.3
			c0,0,0,0,0,0c-0.5,0-1,0.1-1.4,0.2c-0.1,0-0.1,0-0.2,0.1c-0.4,0.1-0.8,0.2-1.2,0.4c0,0,0,0,0,0l-4.2-7.6
			C77.1,37.3,78.7,36.8,80.1,36.3z M82.5,55.3c-2.2,0-4-1.8-4-4c0-1.3,0.6-2.4,1.5-3.1c0,0,0,0,0,0c0.5-0.4,1.2-0.7,1.8-0.8
			c0.1,0,0.1,0,0.2,0c0.2,0,0.5,0,0.8,0c0.1,0,0.2,0,0.2,0c0.3,0,0.6,0.1,0.9,0.2c0,0,0,0,0,0c1.5,0.6,2.5,2,2.5,3.7
			C86.6,53.5,84.8,55.3,82.5,55.3z"/>
	</defs>
	<clipPath id="SVGID_2_">
		<use xlink:href="#SVGID_1_"  style="overflow:visible;"/>
	</clipPath>
	
		<radialGradient id="SVGID_3_" cx="-208.5789" cy="-86.3298" r="46.8821" gradientTransform="matrix(1.024 -0.6146 -0.6097 -1.0159 216.4463 -207.4549)" gradientUnits="userSpaceOnUse">
		<stop  offset="0" style="stop-color:#F987D6"/>
		<stop  offset="1" style="stop-color:#F987D6;stop-opacity:0"/>
	</radialGradient>
	<path class="st1" d="M103.5-20.4c15.8,26.3,7.1,60.5-19.4,76.4S23.3,63.6,7.5,37.3S0.4-23.3,26.9-39.2S87.7-46.7,103.5-20.4z"/>
</g>
</svg>
